<?xml version="1.0" encoding="utf-8"?>
<!-- Generator: Adobe Illustrator 16.0.4, SVG Export Plug-In . SVG Version: 6.00 Build 0)  -->
<!DOCTYPE svg PUBLIC "-//W3C//DTD SVG 1.1//EN" "http://www.w3.org/Graphics/SVG/1.1/DTD/svg11.dtd">
<svg version="1.1" id="Layer_1" xmlns="http://www.w3.org/2000/svg" xmlns:xlink="http://www.w3.org/1999/xlink" x="0px" y="0px"
	 width="343px" height="78px" viewBox="0 0 343 78" enable-background="new 0 0 343 78" xml:space="preserve">
<g>
	<g>
		<defs>
			<rect id="SVGID_1_" x="-28.5" y="-61" width="400" height="200"/>
		</defs>
		<clipPath id="SVGID_2_">
			<use xlink:href="#SVGID_1_"  overflow="visible"/>
		</clipPath>
		<path clip-path="url(#SVGID_2_)" fill="#FFFFFF" d="M3.61,39.25V39c0-18.233,14.237-33.718,33.094-33.718
			c10.74,0,17.983,4.121,23.728,9.366c0.749,0.624,1.498,1.873,1.498,3.372c0,2.622-2.122,4.621-4.62,4.621
			c-1.249,0-2.373-0.5-3.122-1.124c-4.621-4.246-9.866-7.743-17.609-7.743c-13.112,0-23.103,11.114-23.103,24.977V39
			c0,13.987,10.24,25.102,23.727,25.102c7.369,0,13.238-3.372,17.984-7.868c0.624-0.624,1.499-1.249,2.747-1.249
			c2.373,0,4.371,2.123,4.371,4.371c0,1.124-0.5,2.248-1.248,2.997c-6.12,6.12-13.488,10.366-24.353,10.366
			C17.847,72.719,3.61,57.357,3.61,39.25"/>
		<path clip-path="url(#SVGID_2_)" fill="#FFFFFF" d="M64.564,39.25V39c0-18.233,14.237-33.718,33.719-33.718
			c19.357,0,33.594,15.235,33.594,33.469V39c0,18.233-14.362,33.719-33.844,33.719C78.676,72.719,64.564,57.482,64.564,39.25
			 M122.011,39.25V39c0-13.862-10.366-25.226-23.978-25.226c-13.987,0-23.603,11.364-23.603,24.977V39
			c0,13.862,10.241,25.102,23.853,25.102C112.27,64.102,122.011,52.861,122.011,39.25"/>
		<path clip-path="url(#SVGID_2_)" fill="#FFFFFF" d="M162.708,72.219h-0.499c-2.623,0-4.371-1.623-5.495-4.121l-24.228-54.699
			c-0.249-0.874-0.624-1.748-0.624-2.623c0-2.497,2.123-4.745,4.871-4.745c2.747,0,4.121,1.623,4.87,3.747l20.855,50.452
			l21.23-50.702c0.625-1.874,1.999-3.497,4.496-3.497c2.623,0,4.746,2.123,4.746,4.745c0,0.875-0.25,1.749-0.5,2.373l-24.352,54.949
			C166.955,70.596,165.332,72.219,162.708,72.219"/>
		<path clip-path="url(#SVGID_2_)" fill="#FFFFFF" d="M225.374,72.718c-17.733,0-32.22-13.611-32.22-33.593v-0.25
			c0-18.608,13.113-33.594,30.972-33.594c19.106,0,29.972,15.611,29.972,32.72c0,2.622-2.123,4.496-4.496,4.496h-46.706
			c1.373,13.986,11.239,21.854,22.728,21.854c7.993,0,13.863-3.122,18.608-7.493c0.749-0.625,1.623-1.124,2.747-1.124
			c2.373,0,4.247,1.873,4.247,4.121c0,1.124-0.5,2.248-1.499,3.122C243.607,68.848,236.364,72.718,225.374,72.718 M244.481,35.378
			c-0.999-11.739-7.743-21.979-20.605-21.979c-11.24,0-19.732,9.366-20.98,21.979H244.481z"/>
		<path clip-path="url(#SVGID_2_)" fill="#FFFFFF" d="M260.839,10.901c0-2.623,2.123-4.87,4.745-4.87
			c2.748,0,4.871,2.123,4.871,4.87v12.114c4.745-10.74,14.112-17.234,22.229-17.234c2.872,0,4.746,2.123,4.746,4.87
			c0,2.623-1.749,4.496-4.246,4.871c-12.489,1.498-22.729,10.865-22.729,29.472v21.98c0,2.622-1.998,4.869-4.746,4.869
			c-2.747,0-4.87-2.122-4.87-4.869V10.901z"/>
		<path clip-path="url(#SVGID_2_)" fill="#FFFFFF" d="M302.8,10.901c0-2.623,2.123-4.87,4.744-4.87c2.748,0,4.871,2.123,4.871,4.87
			v12.114c4.745-10.74,14.112-17.234,22.229-17.234c2.872,0,4.746,2.123,4.746,4.87c0,2.623-1.749,4.496-4.246,4.871
			c-12.489,1.498-22.729,10.865-22.729,29.472v21.98c0,2.622-1.998,4.869-4.746,4.869c-2.746,0-4.869-2.122-4.869-4.869V10.901z"/>
	</g>
</g>
<g>
	<defs>
		<path id="SVGID_3_" d="M90.471,29.263v21.474c0,1.396,1.545,2.239,2.72,1.484l16.498-10.605c1.074-0.691,1.083-2.257,0.016-2.959
			L93.208,27.789c-0.308-0.202-0.641-0.294-0.967-0.294C91.323,27.495,90.471,28.225,90.471,29.263"/>
	</defs>
	<clipPath id="SVGID_4_">
		<use xlink:href="#SVGID_3_"  overflow="visible"/>
	</clipPath>
	
		<linearGradient id="SVGID_5_" gradientUnits="userSpaceOnUse" x1="-27.9995" y1="139.9883" x2="-26.9995" y2="139.9883" gradientTransform="matrix(20.0286 0 0 -20.0286 651.2697 2844.0049)">
		<stop  offset="0" style="stop-color:#01E0FF"/>
		<stop  offset="0.25" style="stop-color:#30AEF7"/>
		<stop  offset="0.5" style="stop-color:#9657D3"/>
		<stop  offset="0.75" style="stop-color:#CC29B9"/>
		<stop  offset="1" style="stop-color:#FF01A3"/>
	</linearGradient>
	<rect x="90.471" y="27.495" clip-path="url(#SVGID_4_)" fill="#FFFFFF" width="20.301" height="25.481"/>
</g>
</svg>
